<svg xmlns="http://www.w3.org/2000/svg" width="24" height="20"><path id="clients" d="M737.825 1234.01h-1.558l-3.151-2.86a8.262 8.262 0 003.547-2.16v-.62c-.655.12-2.129-.39-1.516-.69a1.294 1.294 0 00.6-.73 2.144 2.144 0 01-.105-.55l-.014-.27a.448.448 0 01-.117.02.384.384 0 01-.385-.39v-.79a.391.391 0 01.385-.39c.012 0 .022.01.033.01l-.028-.51a2.328 2.328 0 114.621 0l-.029.51c.012 0 .021-.01.032-.01a.392.392 0 01.386.39v.79a.385.385 0 01-.386.39.455.455 0 01-.117-.02l-.015.27a2.181 2.181 0 01-.136.62 1.258 1.258 0 00.571.66c.6.29-.775.78-1.455.7v.61a8.411 8.411 0 003.853 2.27 3.054 3.054 0 011.157 1.83v.92h-6.172zm-3.87-6.55a.62.62 0 01-.193-.04l-.025.43a3.483 3.483 0 01-1.677 2.77v1.37a13.958 13.958 0 006.335 3.61s1.9 1.47 1.9 2.93v1.46H720v-1.46c0-1.46 1.9-2.93 1.9-2.93a13.964 13.964 0 006.335-3.61v-1.37a3.481 3.481 0 01-1.68-2.77l-.024-.43a.608.608 0 01-.191.04.631.631 0 01-.634-.63v-1.25a.631.631 0 01.634-.63c.019 0 .035.01.053.01l-.045-.81a3.815 3.815 0 117.6 0l-.047.81c.019 0 .034-.01.053-.01a.631.631 0 01.634.63v1.25a.631.631 0 01-.633.63z" transform="translate(-720 -1220)" fill="#2aacc8" fill-rule="evenodd"/></svg>